<svg xmlns="http://www.w3.org/2000/svg"><path d="M463.498 151H487.5c4.687 0 8.5 3.813 8.5 8.5s-3.813 8.5-8.5 8.5H143.503a7.5 7.5 0 0 0 0 15H487.5c12.958 0 23.5-10.542 23.5-23.5S500.458 136 487.5 136h-24.002a7.5 7.5 0 0 0 0 15z"/><path d="M.059 161.178a23.513 23.513 0 0 0 6.615 14.724c.106.114.216.225.33.332l95.878 95.878c4.436 4.442 10.338 6.888 16.619 6.888s12.183-2.446 16.616-6.884c4.439-4.439 6.884-10.34 6.884-16.616s-2.445-12.176-6.884-16.616L80.235 183h31.261a7.5 7.5 0 0 0 0-15H62.129a7.5 7.5 0 0 0-5.304 12.803l68.684 68.688c1.606 1.606 2.491 3.74 2.491 6.009s-.885 4.403-2.494 6.013c-1.602 1.604-3.735 2.487-6.006 2.487s-4.404-.883-6.009-2.491l-96-96-.018-.018a8.398 8.398 0 0 1-2.447-5.303l-.005-.086a8.474 8.474 0 0 1 2.068-6.183c.134-.156.27-.306.484-.515l95.921-95.917C115.096 55.883 117.229 55 119.5 55s4.404.883 6.009 2.491c3.313 3.313 3.313 8.705 0 12.019l-68.684 68.688a7.499 7.499 0 0 0 5.304 12.803H431.5a7.5 7.5 0 0 0 0-15H80.235l55.881-55.884c9.162-9.162 9.162-24.069.003-33.228C131.683 42.446 125.781 40 119.5 40s-12.183 2.446-16.616 6.884L7.036 142.73c-.454.442-.891.909-1.308 1.396a23.39 23.39 0 0 0-5.533 12.347 23.72 23.72 0 0 0-.146 4.543c.002.054.006.108.01.162z"/></svg>