<svg xmlns="http://www.w3.org/2000/svg" viewBox="0 0 511 511" width="512" height="512"><path d="M510.941 349.822a23.513 23.513 0 0 0-6.615-14.724 6.887 6.887 0 0 0-.33-.332l-95.878-95.878C403.683 234.446 397.781 232 391.5 232s-12.183 2.446-16.616 6.884c-4.439 4.439-6.884 10.34-6.884 16.616s2.445 12.176 6.884 16.616L430.765 328h-31.261a7.5 7.5 0 0 0 0 15h49.367a7.5 7.5 0 0 0 5.304-12.803l-68.684-68.688c-1.606-1.606-2.491-3.74-2.491-6.009s.885-4.403 2.494-6.013c1.602-1.604 3.735-2.487 6.006-2.487s4.404.883 6.009 2.491l96 96 .018.018a8.398 8.398 0 0 1 2.447 5.303l.005.086a8.474 8.474 0 0 1-2.068 6.183c-.134.156-.27.306-.484.515l-95.921 95.917c-1.602 1.604-3.735 2.487-6.006 2.487s-4.404-.883-6.009-2.491c-1.606-1.606-2.491-3.74-2.491-6.009s.885-4.403 2.491-6.009l68.684-68.688A7.499 7.499 0 0 0 448.871 360H95.5a7.5 7.5 0 0 0 0 15h335.265l-55.881 55.884c-4.439 4.439-6.884 10.34-6.884 16.616s2.445 12.176 6.881 16.612c4.436 4.442 10.338 6.888 16.619 6.888s12.183-2.446 16.616-6.884l95.849-95.846c.454-.442.891-.909 1.308-1.396a23.39 23.39 0 0 0 5.533-12.347 23.72 23.72 0 0 0 .135-4.705z"/><path d="M63.5 360h-40c-4.687 0-8.5-3.813-8.5-8.5s3.813-8.5 8.5-8.5h343.997a7.5 7.5 0 0 0 0-15H23.5C10.542 328 0 338.542 0 351.5S10.542 375 23.5 375h40a7.5 7.5 0 0 0 0-15z"/></svg>