<svg height="32" viewBox="0 0 512 512" width="32" xmlns="http://www.w3.org/2000/svg"><path clip-rule="evenodd" d="M63.938 384.107C28.567 384.107 0 412.683 0 448.054S28.567 512 63.938 512c35.372 0 63.946-28.575 63.946-63.946s-28.574-63.947-63.946-63.947zm0-63.946C28.567 320.161 0 291.148 0 256.215c0-35.363 28.567-64.392 63.938-64.392 70.75 0 134.689 29.028 180.95 75.281 46.26 46.261 75.273 110.207 75.273 180.949 0 35.371-28.56 63.946-63.931 63.946-35.379 0-64.407-28.575-64.407-63.946s-14.053-67.117-37.636-90.256c-23.13-23.574-54.877-37.636-90.249-37.636zm0-192.276C28.567 127.885 0 99.31 0 63.938 0 28.567 28.567 0 63.938 0c123.354 0 235.366 50.339 316.545 131.51C461.662 212.688 512 324.708 512 448.054 512 483.425 483.425 512 448.054 512s-63.946-28.575-63.946-63.946c0-87.975-36.277-167.794-94.333-225.843-57.588-58.049-137.853-94.326-225.837-94.326z" fill="#DD7346" fill-rule="evenodd"/></svg>