<svg id="Layer_1" width="100" height="100" viewBox="0 0 97 97" xmlns="http://www.w3.org/2000/svg"><style>.st0{fill:#292d34}.st1{fill:#2dcb73}.st2{fill:#f7c44c}.st3{fill:#fff}</style><path class="st0" d="M48.5 96.5C22 96.5.5 75 .5 48.5S22 .5 48.5.5v4c-24.3 0-44 19.7-44 44s19.7 44 44 44v4zm.6 0v-4c1.3 0 2.6-.1 3.8-.2l.4 4c-1.4.1-2.8.2-4.2.2zm10.3-1.2l-.9-3.9c1.2-.3 2.5-.6 3.7-1l1.2 3.8c-1.3.4-2.6.7-4 1.1zm9.8-3.5l-1.7-3.6c1.1-.6 2.3-1.2 3.4-1.8l2 3.4c-1.2.7-2.4 1.4-3.7 2zm8.9-5.5l-2.5-3.1c1-.8 2-1.6 2.9-2.5l2.7 2.9c-1 .9-2 1.8-3.1 2.7zm7.4-7.3l-3.1-2.5c.8-1 1.6-2 2.3-3.1l3.3 2.3c-.7 1.1-1.6 2.3-2.5 3.3zm5.8-8.7l-3.6-1.8c.6-1.1 1.1-2.3 1.6-3.5l3.7 1.5c-.5 1.3-1.1 2.6-1.7 3.8zm3.7-9.7l-3.9-1c.3-1.2.6-2.5.8-3.7l3.9.7c-.2 1.3-.5 2.6-.8 4zm1.5-10.3l-4-.1v-1.6c0-.7 0-1.5-.1-2.2l4-.2c0 .8.1 1.6.1 2.4v1.7zm-4.7-9.7c-.2-1.3-.5-2.5-.8-3.7l3.9-1.1c.4 1.3.7 2.7.9 4.1l-4 .7zm-2.7-9.1c-.5-1.2-1-2.3-1.6-3.5l3.5-1.9c.6 1.2 1.2 2.5 1.8 3.8l-3.7 1.6zm-4.6-8.4c-.7-1-1.5-2.1-2.3-3l3.1-2.6c.9 1.1 1.8 2.2 2.6 3.3l-3.4 2.3zM78.1 16c-.9-.9-1.9-1.7-2.9-2.5l2.4-3.2c1.1.8 2.2 1.7 3.2 2.7l-2.7 3zm-7.7-5.7c-1.1-.6-2.2-1.2-3.4-1.8L68.7 5c1.3.6 2.5 1.2 3.7 1.9l-2 3.4zm-8.7-3.8c-1.2-.4-2.5-.7-3.7-1l.9-3.9c1.3.3 2.7.7 4 1.1l-1.2 3.8zm-9.4-1.8c-1.3-.1-2.5-.2-3.8-.2v-4c1.4 0 2.8.1 4.2.2l-.4 4z"/><path class="st1" d="M48.5 84.5c-19.9 0-36-16.1-36-36s16.1-36 36-36 36 16.1 36 36-16.1 36-36 36z"/><path class="st3" d="M67.4 48.5L37.6 65.3 37.6 31.7z"/><path class="st0" d="M35.6 68.7V28.3l35.8 20.2-35.8 20.2zm4-33.6v26.7l23.7-13.4-23.7-13.3z"/></svg>